<svg xmlns="http://www.w3.org/2000/svg" viewBox="0 0 1830.4 318.18"><defs><style>.cls-1{fill:#ffe000;}</style></defs><title>Layer 1</title><g id="Layer_2" data-name="Layer 2"><g id="Layer_1-2" data-name="Layer 1"><path class="cls-1" d="M162.42,133.26l5.08-8.42A139.78,139.78,0,0,1,134.24,129q-19.38,0-33.17-6.26T80.13,105.47A44.15,44.15,0,0,1,73,80.82q0-20.16,16.53-39T135.7,11.45Q165.36,0,202.73,0V2.74Q167.89,2.94,139.32,14T94.71,43q-16,17.91-16,39,0,19.77,15.17,30.92t43,11.93q15.27.6,34.44-5.08,18.59-25.44,41.09-51.08a342.94,342.94,0,0,1,51-47.16Q291.76,0,315.83,0,330.7,0,330.7,12.72q0,9.58-10.17,23.68T291.66,65.94Q273,81.41,247,95.2a338.78,338.78,0,0,1-56.16,23.38l-3.13,4.31Q170,147.15,164.27,154.78a204.73,204.73,0,0,1-16.14,18.3,177,177,0,0,1-24.75,20.84A220.32,220.32,0,0,1,89.82,213.1a150.61,150.61,0,0,0,49.7,8.41,66.68,66.68,0,0,0,23.78-4.11q10.86-4.11,24.36-14.58t43.24-37.08v3.33Q210,188,197.44,198.62a164.42,164.42,0,0,1-21.52,15.85A69.56,69.56,0,0,1,158.21,222a74.56,74.56,0,0,1-18.69,2.25q-22.7,0-53.42-9.2a158,158,0,0,1-26.12,7,159.71,159.71,0,0,1-27.11,2.15Q0,224.25,0,212.31q0-12.51,29.35-12.52a128,128,0,0,1,22,1.86,161.34,161.34,0,0,1,25.53,7.14l8.42,2.74A186.17,186.17,0,0,0,126,181.1Q143.63,163.6,162.42,133.26ZM79.84,213.1a233.84,233.84,0,0,0-28.47-7.54,127.59,127.59,0,0,0-23.78-2.83q-11.14,0-17.32,2.74t-6.16,6.84q0,9.21,28.37,9.2A130,130,0,0,0,79.84,213.1Zm112.51-98.24a304.94,304.94,0,0,0,57.24-25.43q25.54-14.88,42-29.55t25.15-27.2q8.7-12.53,8.71-18.59A13.51,13.51,0,0,0,323,5.87a7.86,7.86,0,0,0-7.14-3.13q-21.72,1.36-46,19.76a255.39,255.39,0,0,0-45,44.33Q204.09,92.75,192.35,114.86Z"/><path class="cls-1" d="M226.6,173.37l-.39-3.13A227,227,0,0,1,261,144.61h17.61l-46.18,51.66q-4.89,5.47-6.26,10.17t2.35,4.7q9.78,0,29.15-14.48a356.81,356.81,0,0,0,35.81-30.53v3.33a389.21,389.21,0,0,1-36.59,31.31q-17.61,13.11-28.77,13.11-6.45,0-6.45-6.85,0-20.35,31.7-52.05,1.76-1.75,3.23-3.42c1-1.11,1.92-2.12,2.83-3A194.57,194.57,0,0,0,226.6,173.37Zm67.7-70.05q4.31,0,4.31,5.28a7.33,7.33,0,0,1-1.76,5.09,5.79,5.79,0,0,1-4.5,2q-5.3,0-5.29-4.7a7.73,7.73,0,0,1,2.16-5.18A6.57,6.57,0,0,1,294.3,103.32Z"/><path class="cls-1" d="M288.24,173.76v-3.13Q318,143,329.92,143q6.65,0,6.65,8.42a24.2,24.2,0,0,1-4.11,13.11q-4.11,6.45-16.63,22.5Q340.09,166.93,357.9,155T388.43,143q6.65,0,6.65,9.2,0,9-6.26,17.9t-20.55,19.28Q353,201,353,205.86a4.84,4.84,0,0,0,1.86,3.62,5.7,5.7,0,0,0,3.81,1.66q6.85,0,18.1-7.53a245.07,245.07,0,0,0,24.56-19.18q13.31-11.64,21.53-18.69v3.33q-11.94,11.15-23.29,20.84A200.34,200.34,0,0,1,377,206.74q-11.25,7.14-18.69,7.14-4.69,0-6.75-3.13a11.62,11.62,0,0,1-2.05-6.46q0-7.42,5.87-16.73a80.54,80.54,0,0,1,16.24-18.1q11.92-10.56,16.53-16.93t-2.64-6.36q-9.19,0-27.79,12.43a380.7,380.7,0,0,0-34.83,26.22q-16.25,13.8-30.72,27.1H276.89l26-29.35q28.57-31.89,28.57-34.83c0-1.3-.78-2-2.34-2Q320.52,145.78,288.24,173.76Z"/><path class="cls-1" d="M485.09,161.83,590.76,41.09h16L483.53,181.79q-4.11,4.69-9,10.56t-7.15,9.2a22.61,22.61,0,0,0-3.13,6.46c-.58,2.09.36,3.13,2.84,3.13q4.89,0,24.07-15.17t36-30.23v3.33q-23.08,20.16-38.84,32.48t-23,12.33q-5.08,0-5.09-6.07,0-7.81,5.48-20.35a1.15,1.15,0,0,0-.78-.78q-27.21,27.19-42.86,27.2-11.15,0-11.15-18.39,0-14.49,11-26.62a76.1,76.1,0,0,1,27-19q16-6.84,28.57-6.85,10,0,10,8.42A22,22,0,0,1,485.09,161.83Zm-8.41-16.05q-8,0-22.9,11.25a150.4,150.4,0,0,0-26.31,25.44Q416,196.66,416,204.68q0,6.47,6.06,6.46,8.61,0,23.78-11.25a158.28,158.28,0,0,0,27-25.34Q484.7,160.45,484.7,153,484.7,145.79,476.68,145.78Z"/><path class="cls-1" d="M522.66,173.37l-.39-3.13a228,228,0,0,1,34.83-25.63h17.61l-46.18,51.66q-4.89,5.47-6.26,10.17t2.35,4.7q9.78,0,29.16-14.48a357.93,357.93,0,0,0,35.81-30.53v3.33A389.25,389.25,0,0,1,553,200.77q-17.61,13.11-28.76,13.11-6.47,0-6.46-6.85,0-20.35,31.7-52.05c1.18-1.17,2.25-2.31,3.23-3.42s1.92-2.12,2.84-3A195,195,0,0,0,522.66,173.37Zm67.71-70.05q4.3,0,4.3,5.28a7.28,7.28,0,0,1-1.76,5.09,5.76,5.76,0,0,1-4.5,2q-5.28,0-5.28-4.7a7.72,7.72,0,0,1,2.15-5.18A6.59,6.59,0,0,1,590.37,103.32Z"/><path class="cls-1" d="M698,144.61l-51.26,57.72a8.12,8.12,0,0,0-2.35,5.09q0,3.72,3.91,3.72,14.09,0,34.25-13.5T712.08,173q6.07-6.84,8.81-18.78Q723.23,143,727,143c1.82,0,2.73,1.05,2.73,3.13q0,14.29-19.56,33.66a24.84,24.84,0,0,0,15.16-1.17q6.94-2.94,14.38-12.92v3.33q-6.06,8.81-13.6,12t-18.88,1.08q-34.05,31.69-60.07,31.7-8,0-8-7.63,0-14.28,29.36-45.2-29.55,26.8-48.14,39.82t-29.35,13q-6.27,0-6.27-7.63,0-14.69,28.38-46.38a81,81,0,0,0,8.8-10.17,159.82,159.82,0,0,0-37.18,24.06v-3.13q10.77-8.59,20.06-15.06a92.18,92.18,0,0,1,22-11H643.2l-47,54q-6.07,7.62-6.07,9.19a3.54,3.54,0,0,0,1,2.16,2.66,2.66,0,0,0,2,1.17q7.44,0,25.63-13.21a388.67,388.67,0,0,0,32.88-26.51q6.84-6.66,15.46-14.09t14.48-12.72Z"/><path class="cls-1" d="M819.12,165.74v3.33Q797.21,191,779,202.43t-36.79,11.45q-16.44,0-16.44-18.79,0-15.65,11.84-27.49a81.52,81.52,0,0,1,27.79-18.2q15.95-6.35,25.92-6.36c3.79,0,6.75.88,8.91,2.64a8.56,8.56,0,0,1,3.23,6.95q0,6.66-7.24,12.23t-20.16,9.2a129.93,129.93,0,0,1-30.33,4.21q-14.87,16.83-14.87,25.63c0,2.09,1.07,3.82,3.23,5.19a14.94,14.94,0,0,0,8.12,2Q773.72,211.14,819.12,165.74Zm-69.47,8.81q16.25,0,27.4-4.11T794,160.65q5.76-5.67,5.77-9.19,0-5.67-6.66-5.68-8.8,0-20.54,7.73A107.86,107.86,0,0,0,749.65,174.55Z"/><path class="cls-1" d="M1076.64,45.2l1.95,1.57q-12.31,14.67-26.51,22.6a62.19,62.19,0,0,1-30.82,7.92q-15.27,0-24.46-6.65t-9.2-17.41q0-13.69,9.59-26t27.69-19.76Q1043,0,1066.07,0q32.88,0,32.87,23.09,0,.78-.78,5.48a51.57,51.57,0,0,0-.78,5.87q0,6.66,8.8,6.65a31.24,31.24,0,0,0,14.78-4,92.76,92.76,0,0,0,15.36-10.47q7.83-6.45,9.2-7.43a65.35,65.35,0,0,0,7-6,72.22,72.22,0,0,1,8.9-7.24c2.81-1.89,5.25-2.84,7.34-2.84q2.75,0,.1,2.84a23.2,23.2,0,0,1-5.38,4.4q-5.68,3.92-22.89,18.4A264.59,264.59,0,0,0,1109,61.84q-12.42,15.84-32.38,47.55-11,17.42-18.4,28.08t-14.77,19.37q-7.34,8.7-15.75,17.71a225.44,225.44,0,0,1-30.53,26.81A123.57,123.57,0,0,1,964,218.28q-17.89,6-40.6,6-18.6,0-27.69-6.95t-9.1-17.9q0-6.47,3.33-10.37c2.21-2.61,5.48-3.92,9.78-3.92q7.63,0,7.63,6.66,0,6.45-7.63,6.46-6.66,0-6.65-7.64-3.72,2.16-3.72,9.2,0,9,8.61,15.36t26.61,6.36a94.69,94.69,0,0,0,35.52-6.46,107.09,107.09,0,0,0,29.06-17.22A170.74,170.74,0,0,0,1011.28,176q9.19-11.06,24.07-31,16.83-23.08,25.24-33.85t22.31-27.4l4.5-5.28q9.39-11,31.31-33.27l6.26-6.85c-1.17.66-2.9,1.5-5.18,2.55a38.4,38.4,0,0,1-7.15,2.44,30.86,30.86,0,0,1-8.41.69q-7.05-.2-11.35-4.21a13.88,13.88,0,0,1-4.31-10.66q0,.39,1-5.29a55.21,55.21,0,0,0,1-8q0-13.11-24.46-13.11-23.68,0-40.6,7.63T999.64,29.65q-8.91,11.64-8.91,23.18,0,9.41,8.61,15.46t22.31,6.07Q1051.59,74.36,1076.64,45.2Zm85.71,120.54v3.33q-24.46,21.92-37.09,32.58a141.78,141.78,0,0,1-23.67,16.63q-11.07,6-21,6-12.33,0-12.33-14.68a61.38,61.38,0,0,1,2.06-17,59.28,59.28,0,0,1,5.77-13.4,67.42,67.42,0,0,1,7.83-11q4.11-4.6,10.37-11.25,23.28-24.66,23.28-36.4c0-3.78-.32-6.33-1-7.63a39.48,39.48,0,0,1-15.07,3.13,19.85,19.85,0,0,1-11.45-3.13q-4.61-3.14-4.6-8a8.56,8.56,0,0,1,3.72-7.24,15.39,15.39,0,0,1,9.39-2.74q12.72,0,20.55,14.08a128.4,128.4,0,0,0,21.43-12.71q9.48-7.05,26.12-25.83,29.55-33.08,53.91-51.76T1269.77,0q16.83,0,16.83,10.37,0,5.48-4.89,5.48-4.31,0-4.3-4.7a26.85,26.85,0,0,1,.39-2.74,25.61,25.61,0,0,0,.39-2.93c0-1.17-.82-2.06-2.45-2.64a19,19,0,0,0-6.36-.88q-30.53,0-58.11,32.48-17.82,20.75-30.53,34a255.2,255.2,0,0,1-28.67,25.44,125.28,125.28,0,0,1-32.19,18.3,58.74,58.74,0,0,1,1.18,9.58q0,12.14-8.12,28.67t-23.19,34.34q-17.61,20.94-17.61,28,0,8.81,10,8.8,6.64,0,15.46-4.6a122.12,122.12,0,0,0,17.31-11q8.52-6.47,19.28-15.85t17.41-15.07Zm-46.18-55.57q-7.25-12.53-18-12.52A11.13,11.13,0,0,0,1091,99.9q-2.83,2.25-2.84,5,0,8.42,13.7,8.41Q1107.36,113.3,1116.17,110.17Z"/><path class="cls-1" d="M1156.87,173.76v-3.13q12.92-12.51,36-26h16.44l-43.64,49.7q-11,12.52-11,14.48c0,1.31,1.11,2,3.33,2q10.76,0,35.22-19.08t54.21-47.06h15.45l-45.59,52q-.78,1-3.23,3.72a30,30,0,0,0-3.72,5,6.42,6.42,0,0,0-1.07,3.81c0,1.31,1,2,3.13,2q7.23,0,27.2-13a233.11,233.11,0,0,0,38.94-32.39v3.33a250.26,250.26,0,0,1-38.65,32.09q-19.28,12.72-28.27,12.72-6.86,0-6.85-6.85,0-6.45,6-16.24t18.49-25l3.72-4.3-7.24,6.45Q1202.07,189,1185,201.45T1158,213.88q-7.24,0-7.24-8.41a27.57,27.57,0,0,1,3.23-12,83,83,0,0,1,8.61-13.6q5.37-7.05,11.45-13.79t12.32-13.8l-10,5.87A237,237,0,0,0,1156.87,173.76Z"/><path class="cls-1" d="M1273.88,170.63l22.7-18.78a9.46,9.46,0,0,1,2.06-8.81,10.32,10.32,0,0,1,8.12-3.71q5.48,0,5.48,5.28a6,6,0,0,1-1.37,4.11,4.72,4.72,0,0,1-3.72,1.56c-3.26,0-5.55-.84-6.85-2.54q-.78,2.74,2,5c1.89,1.5,4.8,2.25,8.71,2.25q14.1,0,20.16-4.7l6.65-5.67q9.78-8.42,13.7-8.42c1.82,0,2.74.66,2.74,2q0,9.58-26,16.44l-42.07,35.61q10.36-3.12,17.61-3.13,10.58,0,10.57,8.42,0,3.51-4.5,8a6.09,6.09,0,0,0-2,3.72c-.13,1.3.39,2,1.57,2q3.91,0,20.84-13.79a434.56,434.56,0,0,0,32.77-29.65v3.33q-45.78,44.81-59.29,44.81a7.64,7.64,0,0,1-5-1.86,6.58,6.58,0,0,1-2.25-5.38q0-4.69,6.46-10.37c2.48-1.44,4-2.87,4.6-4.31s-1.34-2.15-5.77-2.15q-9.6,0-26,10c-1.83,2-3.65,4.08-5.48,6.36a37.05,37.05,0,0,1-5.38,5.58,8,8,0,0,1-4.79,2.15q-3.92,0-3.92-2.74,0-5.47,22.31-17.61l44.62-37.38a89.47,89.47,0,0,1-13.31,1.57q-8.81,0-11.55-4.7l-24.46,20.74Z"/><path class="cls-1" d="M1471.72,144.61l-51.27,57.72a8.12,8.12,0,0,0-2.35,5.09q0,3.72,3.91,3.72,14.1,0,34.25-13.5T1485.81,173q6.06-6.84,8.8-18.78Q1497,143,1500.68,143c1.82,0,2.74,1.05,2.74,3.13q0,14.29-19.57,33.66a24.84,24.84,0,0,0,15.16-1.17q6.95-2.94,14.39-12.92v3.33q-6.08,8.81-13.6,12t-18.89,1.08q-34,31.69-60.07,31.7-8,0-8-7.63,0-14.28,29.35-45.2-29.55,26.8-48.14,39.82t-29.35,13q-6.26,0-6.26-7.63,0-14.69,28.37-46.38a81.2,81.2,0,0,0,8.81-10.17,159.41,159.41,0,0,0-37.18,24.06v-3.13q10.75-8.59,20-15.06a92.37,92.37,0,0,1,22-11h16.44l-47,54q-6.06,7.62-6.06,9.19a3.48,3.48,0,0,0,1,2.16,2.66,2.66,0,0,0,1.95,1.17q7.44,0,25.64-13.21a388.46,388.46,0,0,0,32.87-26.51q6.86-6.66,15.46-14.09t14.48-12.72Z"/><path class="cls-1" d="M1617.7,169.85l-10,8.42q-23.48,19.56-34.73,27.59t-19.86,8c-3.79,0-5.67-2.15-5.67-6.46q0-6.84,5.28-19.17-28,25.63-41.29,25.63a11.77,11.77,0,0,1-9.59-4.6c-2.47-3.06-3.72-7.53-3.72-13.4a37.6,37.6,0,0,1,5.87-19.67,61.09,61.09,0,0,1,15.76-17.12,81.22,81.22,0,0,1,22.11-11.74,71.4,71.4,0,0,1,23.77-4.31q5.68,0,8.32,2.06t2.84,6.75q-.19,1-.3,1.86c-.06.58-.19,1.4-.39,2.44s-.36,1.9-.49,2.55L1588,144.22l16.44-1.18-5.09,6.26q-6.27,7.44-10.17,12.23c-2.62,3.2-4.83,5.84-6.66,7.93q-30.53,33.07-30.52,38.74c0,2,.91,2.94,2.74,2.94q3.7,0,11.15-4.4a163.64,163.64,0,0,0,16.73-11.65q9.29-7.23,21.23-17.12t13.9-11.45ZM1566,145.78q-11.74,0-26.13,11.55a136,136,0,0,0-25.05,26.22q-10.65,14.67-10.66,20.74a6.7,6.7,0,0,0,6.85,6.85q8,0,23.09-11.15a166.68,166.68,0,0,0,27.2-25.25q12.14-14.09,12.13-22.11Q1573.47,145.79,1566,145.78Z"/><path class="cls-1" d="M1612.8,173.76v-3.13q15.66-13.5,25.73-20.54t17.52-7.05q6.06,0,6.06,8,0,17-23.28,37.57Q1622,203.51,1622,208.2q0,2.94,3.52,2.94,7.24,0,25.15-12t37.18-28q19.26-15.94,29.84-26.51h14.87l-62.81,71.62A208.78,208.78,0,0,0,1707.41,197q15.75-10.45,39.63-31.21v3.33q-22.3,20.55-39.14,31.5t-42.65,20.55l-3.53,3.91q-40.89,45.79-66.14,69.47t-41.68,23.68q-12.12,0-12.13-11.35,0-8.22,11.06-20.65t34.34-27.59q23.28-15.16,59.29-31.8,19.17-24.64,49.7-58.11-20.75,16-27.39,21.13t-15.85,11.45a101.46,101.46,0,0,1-16.34,9.49,32.1,32.1,0,0,1-12.62,3.13,7.43,7.43,0,0,1-5.48-2.15,7.92,7.92,0,0,1-2.16-5.87,30.6,30.6,0,0,1,2.55-12.33,42.18,42.18,0,0,1,8.12-11.84,115.28,115.28,0,0,1,15-13q16.83-12.52,16.83-19.38c0-2.34-1.31-3.52-3.92-3.52q-6.64,0-17.22,8T1612.8,173.76Zm29.94,57q-41.09,20.55-69.56,41.48t-28.47,35a7.48,7.48,0,0,0,2.44,5.77,8.49,8.49,0,0,0,6,2.25q6.86,0,15.46-4.79t19.27-15a361.35,361.35,0,0,0,25-27q7.64-9.39,16.54-20.25T1642.74,230.71Z"/><path class="cls-1" d="M1830.4,165.74v3.33q-11,13.11-24.46,13.11l-2.74-.39c-.91-.13-2-.26-3.13-.39q-31.3,32.47-54.2,32.48a15,15,0,0,1-13.41-8.22,19,19,0,0,1-1.86-8.61q0-13.11,11.55-25.63A92,92,0,0,1,1770,151q16.34-7.93,28.67-7.93,13.3,0,13.31,12.33,0,10-9.59,23.29a11.5,11.5,0,0,0,4.3.78Q1819.05,179.44,1830.4,165.74Zm-31.11-20q-11,0-25.15,12.43a182.36,182.36,0,0,0-25.44,27.3q-11.25,14.87-11.25,18.39a6.19,6.19,0,0,0,2.84,5.19,11.92,11.92,0,0,0,7.14,2q10.36,0,25-10.27a124.18,124.18,0,0,0,25.73-24.27q11.16-14,11.16-22a8,8,0,0,0-2.84-6.36A10.56,10.56,0,0,0,1799.29,145.78Z"/></g></g></svg>