<svg xmlns="http://www.w3.org/2000/svg" xmlns:xlink="http://www.w3.org/1999/xlink" viewBox="0 0 401.63 615.18"><defs><style>.cls-1,.cls-5{fill:#f9c301;}.cls-1,.cls-8{stroke:#ad973d;}.cls-1,.cls-10,.cls-11,.cls-12,.cls-13,.cls-8,.cls-9{stroke-miterlimit:10;}.cls-1,.cls-13,.cls-8{stroke-width:2px;}.cls-2{fill:#fff;}.cls-3{fill:gray;}.cls-12,.cls-4{fill:#f4c706;}.cls-6{clip-path:url(#clip-path);}.cls-7{fill:#8e7e3d;}.cls-10,.cls-8{fill:none;}.cls-10,.cls-11,.cls-13,.cls-9{stroke:#000;}.cls-10{stroke-width:3px;}.cls-11{stroke-width:0.25px;}.cls-12{stroke:#d89030;}.cls-13{fill:#666;}</style><clipPath id="clip-path"><path id="_Clipping_Path_" data-name="&lt;Clipping Path&gt;" class="cls-1" d="M198.63,362c3,1.16,7.16,1.33,12,1,6-4.65,11.85-8.39,17-8,11.29,2.67,23.9,7.64,38,14-28,25-40,25-67,25Z"/></clipPath></defs><title>Layer 4</title><g id="Layer_2" data-name="Layer 2"><g id="Layer_4" data-name="Layer 4"><path class="cls-2" d="M196.71,615.18c-49.29,0-95.52-7.43-130.16-20.94C23.41,577.41.4,552.32,0,521.67V476.93H1.29c2.44-29.61,32.15-56.45,81.07-73.46C65.4,382.93,52,357.57,42.53,328c-9.77-30.53-14.89-64.64-14.79-98.66C28,120.88,81.23,2.89,197.34,0h.76C308.69,4.35,357.31,109.64,365.34,198.5l.26,2.9-1.43,2.6c-1.39,2.52-3.86,6.45-5.94,9.69,1.68,1.77,3.67,3.83,5.52,5.68l2.92,2.91,0,4c.45,58.83-14,114.43-40.61,156.57a198.91,198.91,0,0,1-13.22,18.52c52.88,16.87,84.95,44.52,87.46,75.6h1.29v40.4c.36,30.64-22,56.21-64.68,73.95-35.67,14.84-83.58,23.31-134.91,23.87Z"/><path class="cls-3" d="M369.63,513c1.3,110.65-337.7,114.65-339,4V483h339Z"/><path d="M196.39,599c-42.75,0-82.52-6.88-112.45-19.48-35.22-14.84-54-36.46-54.31-62.53V482h341v31c.3,26.06-18,48.12-52.83,63.78-30.7,13.8-72.14,21.68-116.68,22.21ZM31.63,484v33c.37,31.84,29.07,50.58,53.09,60.7,30.77,13,72.09,19.8,116.37,19.29s85.43-8.35,115.89-22c23.77-10.67,52-30.09,51.65-61.94V484Z"/><ellipse class="cls-4" cx="200.13" cy="478" rx="169.5" ry="84"/><path d="M200.13,564c-45.58,0-88.46-8.81-120.75-24.81C46.65,523,28.63,501.24,28.63,478s18-45,50.75-61.19c32.29-16,75.17-24.81,120.75-24.81s88.45,8.81,120.74,24.81C353.6,433,371.63,454.76,371.63,478s-18,45-50.76,61.19C288.58,555.19,245.7,564,200.13,564Zm0-168c-92.36,0-167.5,36.79-167.5,82s75.14,82,167.5,82,167.5-36.79,167.5-82S292.49,396,200.13,396Z"/><path class="cls-2" d="M197.32,450.5c-191.27-6-190.25-421,0-426C284,28.13,330.8,114.37,338.49,208.32c-2.06,4.18-8.2,14.18-8.2,14.18s5.11,6,9.32,10.5C340.6,339,292.77,446.44,197.32,450.5Z"/><path d="M197.33,452.5h-.07C152.12,451.08,114.36,427,88.05,383,64.83,344,52.11,292.09,52.25,236.66c.14-55.23,13-106.91,36.3-145.54,26.34-43.71,63.93-67.44,108.72-68.62h.13c41,1.71,76.16,22.08,101.78,58.9,22.6,32.48,37.27,77.49,41.3,126.76l0,.55-.25.49c-1.66,3.38-5.8,10.27-7.53,13.1,1.67,1.94,5.26,6.06,8.32,9.33l.53.57V233c.52,55.69-12,108.25-35.25,148-26.25,44.87-63.93,69.6-109,71.52Zm0-426C100.75,29.09,56.5,137.25,56.25,236.67,56,336.53,100,445.39,197.31,448.5c43.57-1.88,80.08-25.92,105.6-69.54C325.69,340,338,288.49,337.62,233.79c-4.08-4.4-8.8-9.93-8.85-10l-.94-1.11.76-1.24c.05-.09,5.65-9.23,7.86-13.53C329.64,126.52,289.16,30.39,197.31,26.5Z"/><g id="Layer_3" data-name="Layer 3"><path id="_Clipping_Path_2" data-name="&lt;Clipping Path&gt;" class="cls-5" d="M198.63,362c3,1.16,7.16,1.33,12,1,6-4.65,11.85-8.39,17-8,11.29,2.67,23.9,7.64,38,14-28,25-40,25-67,25Z"/><g class="cls-6"><path class="cls-5" d="M265.63,369c-23.81,5.55-46.36,9.07-67,9.5"/><path class="cls-7" d="M265.85,370a7.93,7.93,0,0,0-4.31.19l-4.12,1L249.14,373c-5.53,1.2-11.07,2.37-16.65,3.36s-11.18,1.89-16.82,2.55c-2.82.33-5.65.62-8.49.83l-4.25.28c-1.42,0-2.84.41-4.28-.5l0-2c1.38-1,2.78-.67,4.18-.76l4.21-.15c2.8-.13,5.61-.26,8.41-.46q8.42-.57,16.82-1.56c5.59-.68,11.18-1.46,16.75-2.43q4.17-.72,8.32-1.56l4.15-.85a7.88,7.88,0,0,0,3.95-1.7Z"/></g><path id="_Clipping_Path_3" data-name="&lt;Clipping Path&gt;" class="cls-8" d="M198.63,362c3,1.16,7.16,1.33,12,1,6-4.65,11.85-8.39,17-8,11.29,2.67,23.9,7.64,38,14-28,25-40,25-67,25Z"/></g><path class="cls-9" d="M200.63,450C6,450,6,23,200.63,23"/><rect class="cls-4" x="108.13" y="109.5" width="67" height="14"/><rect class="cls-4" x="108.13" y="144.79" width="67" height="14"/><rect class="cls-4" x="108.13" y="180.07" width="67" height="14"/><rect class="cls-4" x="108.13" y="215.36" width="67" height="14"/><rect class="cls-4" x="108.13" y="250.64" width="67" height="14"/><rect class="cls-4" x="108.13" y="285.93" width="67" height="14"/><rect class="cls-4" x="108.13" y="321.21" width="67" height="14"/><rect class="cls-4" x="108.13" y="356.5" width="67" height="14"/><path class="cls-10" d="M337.13,208.5h-73c-20.23,3-40.51,22-34.93,42.2,0,0,5.54,33.61,6.43,45.3.64,8.52-2.41,15.91-21.5,17.5-6.11.51-17,0-17,0"/><path d="M302.63,199l-9.5-118.5c8,9,10,11,15.5,26.5Z"/><polygon class="cls-11" points="265.63 199 250.63 40 271.63 56 265.63 199"/><polygon points="230.13 225.5 210.13 24.5 236.13 32.5 230.13 225.5"/><ellipse class="cls-12" cx="284.15" cy="251.31" rx="30.1" ry="10.79" transform="matrix(1, -0.07, 0.07, 1, -17.68, 21.53)"/><path class="cls-2" d="M317.63,277c-22,7.8-43.28,8.36-64,0"/><path d="M317.63,277a54.9,54.9,0,0,1-15.27,6.94,63.28,63.28,0,0,1-16.73,2.48,59,59,0,0,1-16.82-2.19A47.42,47.42,0,0,1,253.63,277c5.58.73,10.88,1.54,16.17,2a148.57,148.57,0,0,0,15.75.65c5.24-.06,10.49-.39,15.8-.92S312,277.5,317.63,277Z"/><ellipse class="cls-13" cx="252.13" cy="465.5" rx="17.5" ry="11.5"/><ellipse class="cls-13" cx="198.13" cy="496.5" rx="17.5" ry="11.5"/><ellipse class="cls-13" cx="143.13" cy="465.5" rx="17.5" ry="11.5"/></g></g></svg>