<svg xmlns="http://www.w3.org/2000/svg" xmlns:xlink="http://www.w3.org/1999/xlink" viewBox="0 0 364.77 602.98"><defs><style>.cls-1,.cls-6{fill:#f9c301;}.cls-1,.cls-9{stroke:#ad973d;}.cls-1,.cls-10,.cls-11,.cls-12,.cls-13,.cls-14,.cls-2,.cls-9{stroke-miterlimit:10;}.cls-1,.cls-14,.cls-9{stroke-width:2px;}.cls-2,.cls-5{fill:#fff;}.cls-2{stroke:#fff;}.cls-3{fill:gray;}.cls-13,.cls-4{fill:#f4c706;}.cls-7{clip-path:url(#clip-path);}.cls-8{fill:#8e7e3d;}.cls-11,.cls-9{fill:none;}.cls-10,.cls-11,.cls-12,.cls-14{stroke:#000;}.cls-11{stroke-width:3px;}.cls-12{stroke-width:0.25px;}.cls-13{stroke:#d89030;}.cls-14{fill:#666;}</style><clipPath id="clip-path"><path id="_Clipping_Path_" data-name="&lt;Clipping Path&gt;" class="cls-1" d="M182.13,351.73c3,1.16,7.16,1.33,12,1,6-4.64,11.85-8.39,17-8,11.29,2.68,23.9,7.64,38,14-28,25-40,25-67,25Z"/></clipPath></defs><title>Layer 4</title><g id="Layer_2" data-name="Layer 2"><g id="Layer_4" data-name="Layer 4"><path class="cls-2" d="M178.67,602.48c-44.65,0-86.52-7.27-117.89-20.49C21.7,565.52.86,541,.5,511V467.2H1.67c2.21-29,29.12-55.25,73.43-71.89C59.73,375.22,47.61,350.4,39,321.41c-8.85-29.87-13.48-63.25-13.4-96.54C25.89,118.79,74.08,3.33,179.24.51h.69C280.1,4.76,324.13,107.79,331.41,194.74l.24,2.84-1.31,2.55c-1.25,2.46-3.49,6.31-5.37,9.47,1.52,1.74,3.32,3.75,5,5.56l2.64,2.85,0,3.88c.41,57.56-12.65,112-36.78,153.21a198.72,198.72,0,0,1-12,18.12c47.89,16.51,76.93,43.57,79.21,74h1.17v39.53c.33,30-19.93,55-58.58,72.37-32.31,14.51-75.71,22.81-122.2,23.35Z"/><path class="cls-3" d="M353.13,502.73c1.3,110.66-337.7,114.66-339,4v-34h339Z"/><path d="M179.89,588.75c-42.75,0-82.52-6.87-112.45-19.48-35.22-14.84-54-36.46-54.31-62.52v-35h341v31c.3,26.06-18,48.12-52.83,63.78-30.7,13.8-72.14,21.69-116.68,22.21Zm-164.76-115v33c.37,31.84,29.07,50.58,53.09,60.7,30.77,13,72.09,19.81,116.37,19.29s85.43-8.34,115.89-22c23.77-10.68,52-30.09,51.65-61.94v-29Z"/><ellipse class="cls-4" cx="183.63" cy="467.73" rx="169.5" ry="84"/><path d="M183.63,553.73c-45.58,0-88.46-8.81-120.75-24.81C30.15,512.7,12.13,491,12.13,467.73s18-45,50.75-61.18c32.29-16,75.17-24.82,120.75-24.82s88.45,8.82,120.74,24.82c32.73,16.22,50.76,37.95,50.76,61.18s-18,45-50.76,61.19C272.08,544.92,229.2,553.73,183.63,553.73Zm0-168c-92.36,0-167.5,36.79-167.5,82s75.14,82,167.5,82,167.5-36.78,167.5-82S276,385.73,183.63,385.73Z"/><path class="cls-5" d="M180.82,440.23c-191.27-6-190.25-421,0-426C267.53,17.86,314.3,104.1,322,198.05c-2.06,4.18-8.2,14.18-8.2,14.18s5.11,6,9.32,10.51C324.1,328.71,276.27,436.18,180.82,440.23Z"/><path d="M180.83,442.24h-.07c-45.14-1.41-82.9-25.46-109.21-69.54-23.22-38.91-35.94-90.87-35.8-146.3.14-55.22,13-106.91,36.3-145.53C98.39,37.14,136,13.41,180.77,12.24h.13c41,1.71,76.16,22.07,101.78,58.89,22.6,32.48,37.27,77.5,41.3,126.76l0,.55-.25.5c-1.66,3.37-5.8,10.26-7.53,13.1,1.67,1.93,5.26,6.05,8.32,9.33l.53.57v.78c.52,55.69-12,108.25-35.25,148-26.25,44.87-63.93,69.6-109,71.51Zm0-426C84.25,18.83,40,127,39.75,226.4c-.25,99.86,43.78,208.73,141.06,211.83,43.57-1.87,80.08-25.92,105.6-69.53,22.78-38.95,35.1-90.48,34.71-145.17-4.08-4.41-8.8-9.94-8.85-10l-.94-1.1.76-1.24c.05-.1,5.65-9.23,7.86-13.53C313.14,116.25,272.66,20.12,180.81,16.24Z"/><g id="Layer_3" data-name="Layer 3"><path id="_Clipping_Path_2" data-name="&lt;Clipping Path&gt;" class="cls-6" d="M182.13,351.73c3,1.16,7.16,1.33,12,1,6-4.64,11.85-8.39,17-8,11.29,2.68,23.9,7.64,38,14-28,25-40,25-67,25Z"/><g class="cls-7"><path class="cls-6" d="M249.13,358.73c-23.81,5.56-46.36,9.08-67,9.5"/><path class="cls-8" d="M249.35,359.71a8,8,0,0,0-4.31.18l-4.12,1-8.28,1.86c-5.53,1.19-11.07,2.37-16.65,3.36s-11.18,1.88-16.82,2.55c-2.82.32-5.65.61-8.49.82l-4.25.28c-1.42,0-2.84.41-4.28-.5l0-2c1.38-1,2.78-.67,4.18-.77l4.21-.14c2.8-.13,5.61-.27,8.41-.47q8.42-.56,16.82-1.56c5.59-.68,11.18-1.45,16.75-2.43q4.17-.71,8.32-1.55l4.15-.85a8,8,0,0,0,4-1.71Z"/></g><path id="_Clipping_Path_3" data-name="&lt;Clipping Path&gt;" class="cls-9" d="M182.13,351.73c3,1.16,7.16,1.33,12,1,6-4.64,11.85-8.39,17-8,11.29,2.68,23.9,7.64,38,14-28,25-40,25-67,25Z"/></g><path class="cls-10" d="M184.13,439.73c-194.67,0-194.67-427,0-427"/><rect class="cls-4" x="91.63" y="99.23" width="67" height="14"/><rect class="cls-4" x="91.63" y="134.52" width="67" height="14"/><rect class="cls-4" x="91.63" y="169.81" width="67" height="14"/><rect class="cls-4" x="91.63" y="205.09" width="67" height="14"/><rect class="cls-4" x="91.63" y="240.38" width="67" height="14"/><rect class="cls-4" x="91.63" y="275.66" width="67" height="14"/><rect class="cls-4" x="91.63" y="310.95" width="67" height="14"/><rect class="cls-4" x="91.63" y="346.23" width="67" height="14"/><path class="cls-11" d="M320.63,198.23h-73c-20.23,3-40.51,22-34.93,42.2,0,0,5.54,33.62,6.43,45.3.64,8.52-2.41,15.91-21.5,17.5-6.11.51-17,0-17,0"/><path d="M286.13,188.73l-9.5-118.5c8,9,10,11,15.5,26.5Z"/><polygon class="cls-12" points="249.13 188.74 234.13 29.73 255.13 45.73 249.13 188.74"/><polygon points="213.63 215.24 193.63 14.23 219.63 22.23 213.63 215.24"/><ellipse class="cls-13" cx="267.65" cy="241.05" rx="30.1" ry="10.79" transform="matrix(1, -0.07, 0.07, 1, -16.97, 20.29)"/><path class="cls-5" d="M301.13,266.73c-22,7.81-43.28,8.36-64,0"/><path d="M301.13,266.73a54.93,54.93,0,0,1-15.27,6.95,63.69,63.69,0,0,1-16.73,2.48A59.32,59.32,0,0,1,252.31,274a47.44,47.44,0,0,1-15.18-7.24c5.58.74,10.88,1.55,16.17,2a151.28,151.28,0,0,0,15.75.65c5.24-.06,10.49-.4,15.8-.93S295.52,267.24,301.13,266.73Z"/><ellipse class="cls-14" cx="235.63" cy="455.23" rx="17.5" ry="11.5"/><ellipse class="cls-14" cx="181.63" cy="486.23" rx="17.5" ry="11.5"/><ellipse class="cls-14" cx="126.63" cy="455.23" rx="17.5" ry="11.5"/></g></g></svg>